<svg xmlns="http://www.w3.org/2000/svg" width="1600" height="900" viewBox="0 0 1600 900">
  <rect width="1600" height="900" fill="#f8fafc"/>
  <text x="800" y="80" font-family="Hiragino Sans, Yu Gothic, sans-serif" font-size="54" font-weight="700" text-anchor="middle" fill="#111827">メモがタスク・企画・日報に変わる流れ</text>
  <g font-family="Hiragino Sans, Yu Gothic, sans-serif">
    <rect x="90" y="330" width="270" height="170" rx="24" fill="#ffffff" stroke="#cbd5e1" stroke-width="4"/>
    <text x="225" y="405" font-size="36" font-weight="700" text-anchor="middle" fill="#1e293b">メモ</text>
    <text x="225" y="455" font-size="25" text-anchor="middle" fill="#64748b">思いつき</text>
    <rect x="465" y="330" width="270" height="170" rx="24" fill="#ffffff" stroke="#14b8a6" stroke-width="4"/>
    <text x="600" y="405" font-size="36" font-weight="700" text-anchor="middle" fill="#0f766e">Obsidian</text>
    <text x="600" y="455" font-size="25" text-anchor="middle" fill="#64748b">2nd-brain</text>
    <rect x="840" y="330" width="270" height="170" rx="24" fill="#ffffff" stroke="#93c5fd" stroke-width="4"/>
    <text x="975" y="405" font-size="36" font-weight="700" text-anchor="middle" fill="#1d4ed8">Codex</text>
    <text x="975" y="455" font-size="25" text-anchor="middle" fill="#64748b">分類・整理</text>
    <rect x="1215" y="210" width="300" height="110" rx="20" fill="#ecfeff" stroke="#67e8f9" stroke-width="3"/>
    <text x="1365" y="278" font-size="30" font-weight="700" text-anchor="middle" fill="#0f766e">タスク</text>
    <rect x="1215" y="390" width="300" height="110" rx="20" fill="#f0fdf4" stroke="#86efac" stroke-width="3"/>
    <text x="1365" y="458" font-size="30" font-weight="700" text-anchor="middle" fill="#15803d">企画</text>
    <rect x="1215" y="570" width="300" height="110" rx="20" fill="#fff7ed" stroke="#fdba74" stroke-width="3"/>
    <text x="1365" y="638" font-size="30" font-weight="700" text-anchor="middle" fill="#c2410c">日報</text>
  </g>
  <g stroke-width="7" stroke-linecap="round" fill="none">
    <path d="M370 415h75" stroke="#334155"/>
    <path d="M745 415h75" stroke="#2563eb"/>
    <path d="M1118 415c70 0 60-150 85-150" stroke="#14b8a6"/>
    <path d="M1118 445h75" stroke="#15803d"/>
    <path d="M1118 475c70 0 60 150 85 150" stroke="#f97316"/>
  </g>
  <g fill="#334155">
    <path d="M435 386l45 29-45 29z"/>
    <path d="M810 386l45 29-45 29z"/>
  </g>
</svg>
